<?xml version="1.0" encoding="UTF-8"?>
<svg version="1.1" xmlns="http://www.w3.org/2000/svg" width="1433" height="1430">
<path d="M0 0 C1.3098587 0.00060425 2.61971741 0.0012085 3.9692688 0.00183105 C23.50324627 0.02628599 42.85899002 0.31442526 62.3125 2.1875 C63.71028183 2.31775805 65.10806847 2.4479644 66.50585938 2.578125 C147.266043 10.21886501 225.79329141 31.04732331 356.3125 94.1875 C357.40578613 94.81994629 358.49907227 95.45239258 359.62548828 96.10400391 C374.87667179 104.95156862 389.79714473 114.16917756 404.3125 124.1875 C405.40449707 124.93628418 405.40449707 124.93628418 406.51855469 125.70019531 C433.31125052 144.11479919 458.83202306 164.53945191 482.64916992 186.66772461 C483.86959911 187.78282393 485.10356146 188.88315897 486.3449707 189.97485352 C493.83000498 196.58451805 500.87902266 203.60191145 507.92700195 210.67163086 C510.00294426 212.75295189 512.08420422 214.82884813 514.16601562 216.90429688 C515.51073752 218.24967938 516.85514929 219.59537194 518.19921875 220.94140625 C518.80980637 221.54996964 519.42039398 222.15853302 520.04948425 222.78553772 C523.78186063 226.53792821 527.32548684 230.4104695 530.78184509 234.41873169 C532.86579717 236.82686979 535.02663973 239.16088694 537.1875 241.5 C541.20630593 245.91103173 545.04115324 250.42485358 548.78515625 255.0703125 C550.66297916 257.39987942 552.57274117 259.70007397 554.49609375 261.9921875 C563.21683931 272.41213242 571.38897718 283.15099944 579.3125 294.1875 C579.84649414 294.93064453 580.38048828 295.67378906 580.93066406 296.43945312 C597.01038548 318.88136772 611.78578706 342.11571888 625.3125 366.1875 C626.0540332 367.50596924 626.0540332 367.50596924 626.81054688 368.85107422 C665.60882446 438.24030144 691.94125429 514.11010864 715.5625 713.75 C715.56350708 715.06642487 715.56451416 716.38284973 715.56555176 717.73916626 C715.56383463 740.99336654 714.62755286 764.04514953 712.3125 787.1875 C712.20711914 788.26798615 712.20711914 788.26798615 712.09960938 789.37030029 C707.3640262 837.79523417 697.38820066 885.92789753 682.3125 932.1875 C682.09356079 932.86174011 681.87462158 933.53598022 681.64904785 934.23065186 C671.51181003 965.39784075 659.56068575 995.65865126 645.3125 1025.1875 C645.02697266 1025.78046875 644.74144531 1026.3734375 644.44726562 1026.984375 C636.28852625 1043.90884969 627.63815751 1060.39058584 617.9296875 1076.49121094 C616.40944282 1079.0258701 614.91846727 1081.5750586 613.4375 1084.1328125 C600.86258038 1105.71388649 586.44019798 1126.32745774 571.3125 1146.1875 C570.43319824 1147.34282227 570.43319824 1147.34282227 569.53613281 1148.52148438 C562.48402451 1157.75430398 555.26683165 1166.81144476 547.67333984 1175.60449219 C546.25764706 1177.25130812 544.85621882 1178.90945745 543.45703125 1180.5703125 C536.60136429 1188.68397325 529.46682116 1196.49339585 522.17285156 1204.21386719 C520.22064248 1206.28495094 518.27733684 1208.36409462 516.3359375 1210.4453125 C515.67440674 1211.15381348 515.01287598 1211.86231445 514.33129883 1212.59228516 C513.07014848 1213.9429893 511.80952845 1215.29418888 510.54956055 1216.64599609 C500.14118962 1227.76726914 500.14118962 1227.76726914 494.375 1232.625 C491.56673653 1235.04367779 488.91279407 1237.54649683 486.3125 1240.1875 C482.47682336 1244.06760533 478.45873682 1247.64435217 474.3125 1251.1875 C472.81783203 1252.48107422 472.81783203 1252.48107422 471.29296875 1253.80078125 C457.02963598 1266.12783947 442.52390886 1278.04619033 427.3125 1289.1875 C426.61576172 1289.70135254 425.91902344 1290.21520508 425.20117188 1290.74462891 C402.7710678 1307.27234159 379.37286799 1322.15228534 355.3125 1336.1875 C444.7425 1336.5175 534.1725 1336.8475 626.3125 1337.1875 C626.3125 1288.3475 626.3125 1239.5075 626.3125 1189.1875 C656.6725 1189.1875 687.0325 1189.1875 718.3125 1189.1875 C718.3125 1268.3875 718.3125 1347.5875 718.3125 1429.1875 C245.7525 1429.1875 -226.8075 1429.1875 -713.6875 1429.1875 C-713.749375 1305.89125 -713.81125 1182.595 -713.875 1055.5625 C-713.90231201 1016.64876465 -713.92962402 977.7350293 -713.95776367 937.64208984 C-713.97131348 890.0793457 -713.97131348 890.0793457 -713.97383118 867.80459595 C-713.97680655 851.24548332 -713.98971046 834.68640777 -714.00752028 818.12730551 C-714.02547198 801.2057834 -714.03198871 784.28428444 -714.02783485 767.36275319 C-714.02588279 758.19474429 -714.02844894 749.02679913 -714.04514539 739.85880351 C-714.16778869 669.90640363 -714.16778869 669.90640363 -710.6875 639.1875 C-710.47539366 637.18021531 -710.2642249 635.17283118 -710.05427837 633.16531944 C-709.59414871 628.82732344 -709.04051815 624.50770794 -708.4375 620.1875 C-708.33423401 619.42930969 -708.23096802 618.67111938 -708.12457275 617.88995361 C-698.94427837 550.7955469 -680.67176072 484.91092952 -652.6875 423.1875 C-652.38630249 422.52300842 -652.08510498 421.85851685 -651.77478027 421.17388916 C-638.23988022 391.3868223 -622.93221947 362.98502256 -605.6875 335.1875 C-604.59090863 333.40248945 -603.49453428 331.61734555 -602.3984375 329.83203125 C-596.09697128 319.63908314 -589.30134004 309.89559405 -582.1953125 300.24951172 C-580.36202061 297.74239007 -578.5706251 295.20754248 -576.78271484 292.66796875 C-559.92445967 268.76014309 -540.62046008 246.4041139 -520.54394531 225.16162109 C-518.60888492 223.10390169 -516.69000741 221.03197583 -514.7734375 218.95703125 C-506.68685453 210.23073688 -498.35430313 201.92592111 -489.56396484 193.91113281 C-487.62678527 192.13173029 -485.71141362 190.3312963 -483.80078125 188.5234375 C-477.52921509 182.59371275 -471.22307696 176.83371901 -464.47265625 171.4453125 C-461.86599394 169.33219775 -459.33187084 167.15853624 -456.8034668 164.95361328 C-449.04230787 158.19484215 -440.97236076 151.91822404 -432.74316406 145.74169922 C-430.88436093 144.33633808 -429.04461777 142.91053637 -427.2109375 141.47265625 C-396.43522137 117.54707485 -362.24182213 97.0791422 -327.6875 79.1875 C-326.57439453 78.6090332 -325.46128906 78.03056641 -324.31445312 77.43457031 C-249.81064742 38.90764512 -168.73808754 15.26349313 -47.6875 1.1875 C-47.01526398 1.14017731 -46.34302795 1.09285461 -45.65042114 1.0440979 C-30.44474233 0.00566665 -15.2354027 -0.01298052 0 0 Z M-11.50292969 92.24169922 C-93.78563069 94.04533602 -176.07910922 111.46206204 -262.97998047 150.91162109 C-265.52247278 152.10973334 -268.07343519 153.28691352 -270.62890625 154.45703125 C-282.95894462 160.13791998 -294.87772714 166.49645362 -306.6875 173.1875 C-307.47608398 173.63367676 -308.26466797 174.07985352 -309.07714844 174.53955078 C-338.94020047 191.59778456 -367.53326879 211.57109301 -393.86132812 233.66552734 C-396.35997365 235.74795465 -398.90016919 237.77750202 -401.4375 239.8125 C-406.57162634 244.00394153 -411.41940202 248.4709813 -416.25390625 253 C-418.87297428 255.45332921 -421.54792488 257.83560392 -424.234375 260.21484375 C-430.22433288 265.59470811 -435.91182344 271.26108684 -441.59301758 276.96264648 C-443.3792467 278.7542595 -445.17079347 280.54043055 -446.96289062 282.32617188 C-452.75229998 288.11221961 -458.39213217 293.93985753 -463.6875 300.1875 C-465.14195517 301.79518373 -466.59970895 303.39989715 -468.0625 305 C-472.79326093 310.24930977 -477.25747052 315.68373945 -481.6875 321.1875 C-482.61288408 322.32063697 -483.53868393 323.45343449 -484.46484375 324.5859375 C-491.69341495 333.46922738 -498.47489495 342.62448036 -505.10253906 351.96289062 C-506.6057989 354.07282649 -508.12450166 356.17059497 -509.6484375 358.265625 C-562.61307154 431.51250955 -596.83791741 518.48004663 -620.6875 673.1875 C-620.72880035 673.83582794 -620.77010071 674.48415588 -620.81265259 675.15213013 C-621.63630989 688.22979479 -621.88976 701.27304412 -621.875 714.375 C-621.87439575 715.37640015 -621.8737915 716.37780029 -621.87316895 717.4095459 C-621.7268426 807.39310734 -601.85888584 896.51803567 -523.6875 1050.1875 C-519.94688188 1048.62814367 -517.57284364 1046.31695322 -514.73046875 1043.4609375 C-514.26441727 1042.9944278 -513.79836578 1042.52791809 -513.31819153 1042.04727173 C-512.33336655 1041.0594326 -511.35096619 1040.06917105 -510.37084961 1039.07666016 C-508.89541957 1037.58316953 -507.4123426 1036.0976425 -505.92773438 1034.61328125 C-501.95614166 1030.62638584 -498.00915675 1026.64338333 -494.36328125 1022.3515625 C-488.29029556 1015.26777235 -481.42253442 1008.87125246 -474.79394531 1002.31445312 C-466.75545589 994.4729872 -466.75545589 994.4729872 -459.1875 986.1875 C-453.20260679 979.13762579 -446.36302848 972.81239099 -439.79394531 966.31445312 C-430.93348135 957.56372614 -430.93348135 957.56372614 -422.59765625 948.3203125 C-417.15164614 942.23949139 -411.16942061 936.62457194 -405.36669922 930.88720703 C-397.56366484 923.26912679 -397.56366484 923.26912679 -390.21875 915.21875 C-384.21936387 908.16108707 -377.37398983 901.82323362 -370.79394531 895.31445312 C-362.75545589 887.4729872 -362.75545589 887.4729872 -355.1875 879.1875 C-349.20260679 872.13762579 -342.36302848 865.81239099 -335.79394531 859.31445312 C-326.93348135 850.56372614 -326.93348135 850.56372614 -318.59765625 841.3203125 C-313.15164614 835.23949139 -307.16942061 829.62457194 -301.36669922 823.88720703 C-293.56366484 816.26912679 -293.56366484 816.26912679 -286.21875 808.21875 C-280.21936387 801.16108707 -273.37398983 794.82323362 -266.79394531 788.31445312 C-258.75545589 780.4729872 -258.75545589 780.4729872 -251.1875 772.1875 C-245.20260679 765.13762579 -238.36302848 758.81239099 -231.79394531 752.31445312 C-223.75545589 744.4729872 -223.75545589 744.4729872 -216.1875 736.1875 C-210.20260679 729.13762579 -203.36302848 722.81239099 -196.79394531 716.31445312 C-187.93348135 707.56372614 -187.93348135 707.56372614 -179.59765625 698.3203125 C-174.15164614 692.23949139 -168.16942061 686.62457194 -162.36669922 680.88720703 C-154.56366484 673.26912679 -154.56366484 673.26912679 -147.21875 665.21875 C-141.21936387 658.16108707 -134.37398983 651.82323362 -127.79394531 645.31445312 C-119.75545589 637.4729872 -119.75545589 637.4729872 -112.1875 629.1875 C-106.20260679 622.13762579 -99.36302848 615.81239099 -92.79394531 609.31445312 C-83.93348135 600.56372614 -83.93348135 600.56372614 -75.59765625 591.3203125 C-70.15164614 585.23949139 -64.16942061 579.62457194 -58.36669922 573.88720703 C-50.56545437 566.27122047 -50.56545437 566.27122047 -43.22265625 558.22265625 C-37.77386544 551.81241369 -31.60126663 546.03679939 -25.625 540.125 C-23.13111901 537.65794523 -20.64073425 535.18743508 -18.15234375 532.71484375 C-17.59280502 532.16360336 -17.0332663 531.61236298 -16.45677185 531.04441833 C-12.65193571 527.26296345 -9.1221196 523.30748849 -5.6875 519.1875 C-2.28876138 520.7958973 -0.04992261 522.57962867 2.61328125 525.2578125 C3.42603516 526.0725 4.23878906 526.8871875 5.07617188 527.7265625 C5.91728516 528.57992188 6.75839844 529.43328125 7.625 530.3125 C8.45451172 531.14265625 9.28402344 531.9728125 10.13867188 532.828125 C13.73305558 536.44804102 17.26833048 540.07443783 20.57421875 543.9609375 C25.95186101 550.21175161 31.95310628 555.89410106 37.8125 561.6875 C51.12854763 574.85356801 51.12854763 574.85356801 54.78125 579.15625 C60.21011801 585.54275683 66.35811369 591.29760163 72.3125 597.1875 C86.15984471 610.88487347 86.15984471 610.88487347 91.37109375 617.0234375 C96.42135617 622.65290506 101.93751559 627.87072842 107.3125 633.1875 C121.15984471 646.88487347 121.15984471 646.88487347 126.37109375 653.0234375 C131.42135617 658.65290506 136.93751559 663.87072842 142.3125 669.1875 C156.15984471 682.88487347 156.15984471 682.88487347 161.37109375 689.0234375 C166.42135617 694.65290506 171.93751559 699.87072842 177.3125 705.1875 C191.15984471 718.88487347 191.15984471 718.88487347 196.37109375 725.0234375 C201.42135617 730.65290506 206.93751559 735.87072842 212.3125 741.1875 C226.18930185 754.91401157 226.18930185 754.91401157 231.40234375 761.0546875 C236.28118107 766.50222364 241.61404442 771.54759501 246.8125 776.6875 C260.12854763 789.85356801 260.12854763 789.85356801 263.78125 794.15625 C269.21011801 800.54275683 275.35811369 806.29760163 281.3125 812.1875 C295.15984471 825.88487347 295.15984471 825.88487347 300.37109375 832.0234375 C305.42135617 837.65290506 310.93751559 842.87072842 316.3125 848.1875 C330.15984471 861.88487347 330.15984471 861.88487347 335.37109375 868.0234375 C340.42135617 873.65290506 345.93751559 878.87072842 351.3125 884.1875 C365.49774595 898.21911513 365.49774595 898.21911513 370.71972656 904.37207031 C373.85615079 907.94694011 377.29526456 911.23273667 380.6875 914.5625 C382.11425991 915.96382747 383.53885507 917.3673635 384.9609375 918.7734375 C385.89172119 919.68681885 385.89172119 919.68681885 386.84130859 920.61865234 C388.3125 922.1875 388.3125 922.1875 389.3125 924.1875 C289.9825 924.1875 190.6525 924.1875 88.3125 924.1875 C87.6525 922.5375 86.9925 920.8875 86.3125 919.1875 C81.78996892 912.18869781 75.40897499 908.69672763 67.75 905.875 C59.34864129 904.19472826 51.61600594 905.16901523 44.109375 909.44140625 C36.62506938 914.68327679 30.67979406 922.27712193 28.87890625 931.37890625 C28.21760881 936.20392831 28.39827078 940.41319183 29.3125 945.1875 C28.78277588 945.32575195 28.25305176 945.46400391 27.70727539 945.60644531 C19.94040208 947.77618747 12.5806655 950.83618528 5.15267944 953.93551636 C0.86172729 955.72496183 -3.43663228 957.49647115 -7.734375 959.26953125 C-9.1393499 959.84967735 -9.1393499 959.84967735 -10.57270813 960.44154358 C-23.01976704 965.57345353 -35.51164195 970.59466059 -48 975.625 C-50.4732454 976.62169647 -52.94647509 977.61843182 -55.41967773 978.61523438 C-59.0755499 980.08864876 -62.73143995 981.56201854 -66.38743591 983.03512573 C-77.03346028 987.32522386 -87.67409173 991.62855651 -98.3125 995.9375 C-101.66924909 997.29692869 -105.02602447 998.65629245 -108.3828125 1000.015625 C-109.21332626 1000.3519545 -110.04384003 1000.688284 -110.89952087 1001.0348053 C-122.31982584 1005.65908002 -133.74349344 1010.27504195 -145.16693115 1014.89157104 C-156.60396539 1019.5136149 -168.03979987 1024.13857445 -179.47189331 1028.77282715 C-183.8469794 1030.54614068 -188.22269323 1032.31786532 -192.60009766 1034.08544922 C-194.29329463 1034.76920484 -195.98649125 1035.45296134 -197.6796875 1036.13671875 C-198.50671173 1036.47062622 -199.33373596 1036.80453369 -200.18582153 1037.14855957 C-205.26611071 1039.20191168 -210.33930542 1041.27184266 -215.40795898 1043.35374451 C-218.68253697 1044.69693036 -221.96060431 1046.03144777 -225.23937988 1047.36434937 C-226.77285315 1047.99021612 -228.30471702 1048.6200426 -229.83483887 1049.25405884 C-231.92494687 1050.11970754 -234.02018684 1050.97152652 -236.1171875 1051.8203125 C-237.29522949 1052.30387207 -238.47327148 1052.78743164 -239.68701172 1053.28564453 C-242.66679775 1054.18127753 -243.87812627 1054.39724329 -246.6875 1053.1875 C-248.36328125 1051.8828125 -248.36328125 1051.8828125 -250 1050.3125 C-255.52960168 1045.37493276 -261.46838617 1043.52502911 -268.8125 1042.9375 C-278.40514273 1043.55638018 -285.85202137 1046.31212558 -292.6875 1053.1875 C-297.40992656 1058.83211716 -298.8342896 1062.77465839 -300.6875 1070.1875 C-369.6575 1070.1875 -438.6275 1070.1875 -509.6875 1070.1875 C-508.3675 1072.4975 -507.0475 1074.8075 -505.6875 1077.1875 C-505.2014328 1078.12072523 -504.7153656 1079.05395046 -504.21456909 1080.01545525 C-501.34462978 1084.58707487 -499.16898632 1086.83870115 -493.81793213 1088.09854507 C-488.78180177 1088.59378895 -483.74874481 1088.49115769 -478.6953125 1088.41455078 C-476.75325022 1088.42159758 -474.81119967 1088.43303882 -472.8691864 1088.4485321 C-467.61085669 1088.47807662 -462.3544877 1088.44629477 -457.09631729 1088.40336847 C-451.59629333 1088.36893953 -446.09650185 1088.39108864 -440.59643555 1088.40719604 C-430.18765068 1088.42910303 -419.77965249 1088.40024305 -409.37097645 1088.353073 C-397.51848558 1088.30183689 -385.6662321 1088.30730223 -373.81365967 1088.31749368 C-349.43801448 1088.33718469 -325.06293483 1088.28578903 -300.6875 1088.1875 C-300.41991379 1088.73726501 -300.15232758 1089.28703003 -299.87663269 1089.85345459 C-299.52184341 1090.57438293 -299.16705414 1091.29531128 -298.80151367 1092.03808594 C-298.45142746 1092.75285095 -298.10134125 1093.46761597 -297.74064636 1094.20404053 C-293.90405039 1101.42975282 -287.26047735 1105.66791919 -279.6875 1108.1875 C-270.98726516 1110.72721352 -262.65998755 1109.29030061 -254.6875 1105.1875 C-247.2049618 1100.29326118 -242.41012122 1093.69960312 -239.6875 1085.1875 C-239.25801251 1081.12353231 -239.29838056 1077.2516364 -239.6875 1073.1875 C-239.15705078 1073.04779785 -238.62660156 1072.9080957 -238.08007812 1072.76416016 C-229.52122707 1070.36251399 -221.39400981 1066.93781421 -213.1875 1063.5625 C-211.55644464 1062.89580538 -209.92517303 1062.2296396 -208.29370117 1061.56396484 C-204.84924165 1060.15826429 -201.40559093 1058.75060742 -197.96240234 1057.34179688 C-190.1890654 1054.16402327 -182.40285816 1051.01806917 -174.6171875 1047.8706665 C-170.19874238 1046.08422567 -165.78106943 1044.29587712 -161.36328125 1042.5078125 C-159.58154685 1041.78677427 -157.79980857 1041.06574562 -156.01806641 1040.34472656 C-148.11481681 1037.14642456 -140.21183707 1033.94745587 -132.30883789 1030.74853516 C-129.68181283 1029.68519801 -127.0547756 1028.62189094 -124.42773438 1027.55859375 C-116.59866247 1024.38975939 -108.76963171 1021.22082356 -100.94082642 1018.05133057 C-82.68290286 1010.65961797 -64.4236935 1003.27110567 -46.16162109 995.88964844 C-39.29432782 993.11386843 -32.42719669 990.33768732 -25.56005859 987.56152344 C-21.61252957 985.96566658 -17.66492896 984.36998697 -13.71728516 982.77441406 C-8.88972662 980.82312108 -4.06244528 978.87114373 0.76464844 976.91870117 C2.55899092 976.19305267 4.35342153 975.46762202 6.14794922 974.74243164 C7.83257334 974.06162815 9.51703718 973.3804279 11.20132446 972.6987915 C12.7768612 972.061649 14.35299266 971.42597472 15.92977905 970.79193115 C21.29812732 968.62632861 26.59936269 966.33157051 31.8605957 963.91552734 C34.77164692 963.05116861 36.43536898 963.29011349 39.3125 964.1875 C41.26953125 965.7109375 41.26953125 965.7109375 43.125 967.5625 C50.16130116 973.91997433 56.41190578 974.76707344 65.83984375 974.53515625 C73.98565946 973.71965839 80.88607309 970.34364202 86.3125 964.1875 C90.30214082 959.02768739 92.52918579 954.3274324 93.48046875 947.8515625 C93.64184326 946.78631348 93.80321777 945.72106445 93.96948242 944.62353516 C94.08267822 943.81964355 94.19587402 943.01575195 94.3125 942.1875 C132.76752913 941.79791315 171.2222597 941.49859719 209.6788649 941.3193894 C214.22471524 941.29812881 218.7705617 941.27612519 223.31640625 941.25366211 C224.22135617 941.24920283 225.1263061 941.24474355 226.05867875 941.24014915 C240.68869171 941.16628786 255.3175626 941.03231517 269.94689929 940.87590247 C284.97155012 940.71660969 299.99560519 940.62243522 315.02106571 940.58799559 C324.28440159 940.564732 333.54450927 940.49142699 342.80685055 940.35292006 C349.16895244 940.26266157 355.52939972 940.2359837 361.89209449 940.25797658 C365.55796784 940.26881055 369.21822793 940.25290363 372.88308716 940.16100693 C395.89938215 939.61223623 395.89938215 939.61223623 403.46046448 945.86113167 C406.97470971 949.31225957 409.91614272 953.04843771 412.74388885 957.07205784 C415.20416676 960.39000928 418.12055787 963.18647184 421.09765625 966.03515625 C422.15455548 967.08110762 423.21010561 968.12842586 424.26367188 969.17773438 C425.30046844 970.2021396 426.337579 971.22622714 427.375 972.25 C439.02717042 983.7534871 439.02717042 983.7534871 442.71484375 988.08984375 C448.0257994 994.31285467 453.99933805 999.93981212 459.8125 1005.6875 C473.12854763 1018.85356801 473.12854763 1018.85356801 476.78125 1023.15625 C482.21011801 1029.54275683 488.35811369 1035.29760163 494.3125 1041.1875 C509.76743562 1056.47505365 509.76743562 1056.47505365 515.3125 1063.1875 C519.69249913 1059.20138568 522.56238353 1054.89418676 525.5625 1049.8125 C526.04066162 1049.01521484 526.51882324 1048.21792969 527.01147461 1047.39648438 C527.98761385 1045.76769295 528.960862 1044.13716526 529.93115234 1042.50488281 C531.16756566 1040.43064541 532.41721465 1038.36552977 533.67578125 1036.3046875 C539.49796495 1026.750926 544.98224838 1017.02335924 550.3125 1007.1875 C550.77527344 1006.33720215 551.23804688 1005.4869043 551.71484375 1004.61083984 C586.89234004 939.65401997 608.75657308 867.30824649 618.3125 794.1875 C618.54211426 792.46104248 618.54211426 792.46104248 618.77636719 790.69970703 C622.4608168 762.27976706 624.31181158 732.84632843 623.3125 704.1875 C623.27962891 703.20668457 623.27962891 703.20668457 623.24609375 702.20605469 C621.63249231 654.83835976 616.08295429 608.15937021 604.3125 562.1875 C604.01649902 561.02299316 603.72049805 559.85848633 603.41552734 558.65869141 C592.28110974 515.36619896 576.40119133 474.081862 556.3125 434.1875 C555.77270508 433.10678223 555.23291016 432.02606445 554.67675781 430.91259766 C542.85372019 407.32042685 529.25689124 384.92520105 514.3125 363.1875 C513.80122559 362.44064941 513.28995117 361.69379883 512.76318359 360.92431641 C496.5804909 337.36336837 478.43622693 315.05353736 459.00390625 294.09765625 C457.24918561 292.2003168 455.50633985 290.29190452 453.77734375 288.37109375 C448.21911609 282.20925766 442.48254564 276.25353359 436.625 270.375 C435.5738501 269.31696167 435.5738501 269.31696167 434.50146484 268.23754883 C430.5148747 264.2626812 426.42653967 260.46940207 422.16333008 256.79321289 C419.55052246 254.52643599 417.03114106 252.17017824 414.5 249.8125 C408.95592013 244.6969058 403.1922901 239.91409256 397.3125 235.1875 C396.08359981 234.17964684 394.85580207 233.17044845 393.62890625 232.16015625 C357.75771865 202.67534574 318.73678742 178.09426331 277.3125 157.1875 C276.26852051 156.6601123 275.22454102 156.13272461 274.14892578 155.58935547 C256.57678048 146.77546622 238.67370436 139.15940028 220.3125 132.1875 C218.58676758 131.52838623 218.58676758 131.52838623 216.82617188 130.85595703 C197.3196517 123.46686928 177.46422733 117.51813502 157.3125 112.1875 C156.61660767 112.00338562 155.92071533 111.81927124 155.20373535 111.62957764 C100.9933143 97.37924138 44.50322715 91.16353699 -11.50292969 92.24169922 Z M-621.6875 1068.1875 C-621.6875 1156.9575 -621.6875 1245.7275 -621.6875 1337.1875 C-532.9175 1337.1875 -444.1475 1337.1875 -352.6875 1337.1875 C-356.09628783 1334.46046973 -358.96211797 1332.31801535 -362.66015625 1330.18359375 C-363.62816162 1329.61753418 -364.59616699 1329.05147461 -365.59350586 1328.46826172 C-366.63514893 1327.85998535 -367.67679199 1327.25170898 -368.75 1326.625 C-394.55705277 1311.34363183 -419.32925647 1293.99069385 -442.6875 1275.1875 C-443.32397461 1274.67719238 -443.96044922 1274.16688477 -444.61621094 1273.64111328 C-457.63719272 1263.19064743 -470.36984658 1252.4790316 -482.57421875 1241.08203125 C-484.49715844 1239.28654016 -486.43478181 1237.51785785 -488.39453125 1235.76171875 C-495.48736408 1229.39947814 -502.25590779 1222.72726501 -509 1216 C-509.47621796 1215.52637024 -509.95243591 1215.05274048 -510.44308472 1214.5647583 C-515.52790245 1209.50174783 -520.4982363 1204.3987266 -525.16967773 1198.95043945 C-527.39969868 1196.36028644 -529.73291081 1193.87598539 -532.0625 1191.375 C-536.35180703 1186.73192811 -540.41428619 1181.95308383 -544.37890625 1177.02734375 C-546.45840653 1174.4693121 -548.57802282 1171.95607206 -550.72192383 1169.45239258 C-556.13538356 1163.12522901 -561.32616804 1156.6560526 -566.32568359 1149.99560547 C-567.24532776 1148.77457916 -568.17027887 1147.55753448 -569.10009766 1146.34423828 C-585.81530051 1124.52910863 -601.45187658 1101.35080512 -615.02172852 1077.4440918 C-615.47475342 1076.64656494 -615.92777832 1075.84903809 -616.39453125 1075.02734375 C-616.7706958 1074.35050537 -617.14686035 1073.67366699 -617.53442383 1072.97631836 C-618.81979003 1070.84398609 -618.81979003 1070.84398609 -621.6875 1068.1875 Z " fill="#000000" transform="translate(714.6875,-0.1875)"/>
<path d="M0 0 C1.07176007 -0.00296235 1.07176007 -0.00296235 2.16517186 -0.00598454 C16.43153791 -0.04514121 30.69791487 -0.07857213 44.96431732 -0.10106659 C48.0584057 -0.10603235 51.15249393 -0.11107742 54.24658203 -0.11621094 C55.01520421 -0.11748161 55.7838264 -0.11875228 56.57574016 -0.12006146 C69.12342125 -0.14158411 81.67084686 -0.19081084 94.21839839 -0.25045508 C107.17977616 -0.31155129 120.14102059 -0.34624312 133.10254049 -0.3555398 C140.34981152 -0.36143551 147.59663895 -0.37905455 154.84376526 -0.42692566 C161.62743059 -0.47171192 168.41021551 -0.48112413 175.19405556 -0.46629715 C177.68096879 -0.46662656 180.1679136 -0.47896134 182.65469933 -0.50414658 C186.04703918 -0.53669941 189.43661303 -0.52614777 192.82897949 -0.50476074 C194.3051426 -0.5343224 194.3051426 -0.5343224 195.81112719 -0.56448126 C200.90779749 -0.48323451 203.73945757 0.03010016 207.44232941 3.67412567 C208.47793959 4.8747259 209.48782576 6.09807066 210.46875 7.34375 C211.48650646 8.53388812 212.50698782 9.72170623 213.53125 10.90625 C214.3975 11.90978516 214.3975 11.90978516 215.28125 12.93359375 C220.44421108 18.62207051 226.00862076 23.94275573 231.46875 29.34375 C245.34555185 43.07026157 245.34555185 43.07026157 250.55859375 49.2109375 C255.43743107 54.65847364 260.77029442 59.70384501 265.96875 64.84375 C279.28479763 78.00981801 279.28479763 78.00981801 282.9375 82.3125 C288.36636801 88.69900683 294.51436369 94.45385163 300.46875 100.34375 C315.92368562 115.63130365 315.92368562 115.63130365 321.46875 122.34375 C318.10508017 128.75883024 314.30694398 134.61145832 309.96875 140.40625 C309.36071533 141.22480469 308.75268066 142.04335937 308.1262207 142.88671875 C302.58209926 150.29704323 296.79457431 157.49324951 290.89257812 164.62011719 C288.88034527 167.05605065 286.8956725 169.51417475 284.90625 171.96875 C270.16465434 189.94100843 270.16465434 189.94100843 263.14038086 196.67114258 C261.49071013 198.32177704 259.99177678 200.03560317 258.484375 201.81640625 C254.06604084 206.89717066 249.32163008 211.64122042 244.5534668 216.3894043 C243.03383332 217.9036758 241.51962483 219.4232243 240.00585938 220.94335938 C235.19891719 225.75359045 230.34358895 230.45906437 225.17407227 234.88354492 C222.77863073 236.93467389 220.47249915 239.07901128 218.15625 241.21875 C213.72378526 245.25654322 209.19132823 249.11682434 204.5234375 252.87890625 C202.2856342 254.68460175 200.06393101 256.50354312 197.8515625 258.33984375 C188.74006106 265.87391364 179.36327224 272.92564046 169.71240234 279.75292969 C167.50550612 281.31768875 165.3084878 282.89545866 163.11328125 284.4765625 C154.39941603 290.72783522 145.53064118 296.62187014 136.36572266 302.19091797 C134.57680791 303.27808083 132.79392299 304.37454072 131.01171875 305.47265625 C87.64194502 332.02043813 41.8306263 352.78661551 -6.53125 368.34375 C-7.44535645 368.6413623 -8.35946289 368.93897461 -9.30126953 369.24560547 C-43.48746948 380.31983429 -78.80749757 387.46341356 -114.40625 392.09375 C-115.17430969 392.19489105 -115.94236938 392.2960321 -116.73370361 392.40023804 C-140.67292821 395.51616262 -164.52082085 396.72581296 -188.65604782 396.66140366 C-190.75354056 396.65616308 -192.85101838 396.6542498 -194.94851685 396.65274048 C-217.58676816 396.62444268 -240.01526265 395.77530659 -262.53125 393.34375 C-263.73539551 393.2209668 -264.93954102 393.09818359 -266.18017578 392.97167969 C-288.02823305 390.72593573 -309.47002669 386.75328735 -330.88427734 381.93310547 C-333.3324475 381.3880139 -335.78371524 380.86305755 -338.23828125 380.34765625 C-396.38545182 368.05047904 -453.36562178 344.22731449 -504.53125 314.34375 C-506.42956842 313.24718965 -508.32800584 312.15083531 -510.2265625 311.0546875 C-521.96119882 304.24043839 -533.3656595 297.05380907 -544.53125 289.34375 C-545.59569336 288.61140137 -545.59569336 288.61140137 -546.68164062 287.86425781 C-561.45209183 277.6700929 -575.77368259 266.87198897 -589.53125 255.34375 C-590.0463916 254.91352539 -590.5615332 254.48330078 -591.09228516 254.04003906 C-597.50185452 248.68193569 -603.83686119 243.25867864 -610.01074219 237.62866211 C-611.54294607 236.23967566 -613.08307899 234.85928432 -614.63720703 233.49487305 C-622.10317325 226.91379257 -629.12150486 219.90553315 -636.14575195 212.85961914 C-638.22169426 210.77829811 -640.30295422 208.70240187 -642.38476562 206.62695312 C-643.72948752 205.28157062 -645.07389929 203.93587806 -646.41796875 202.58984375 C-647.02855637 201.98128036 -647.63914398 201.37271698 -648.26823425 200.74571228 C-652.55181263 196.43916408 -656.56851822 191.94546623 -660.53125 187.34375 C-661.57682336 186.15250211 -662.62350539 184.96222527 -663.671875 183.7734375 C-670.46955454 176.0177609 -676.97628215 168.09998858 -683.28222656 159.94091797 C-685.85025344 156.65709627 -688.5129766 153.44803284 -691.16796875 150.234375 C-692.53125 148.34375 -692.53125 148.34375 -692.53125 146.34375 C-666.94949436 146.11021717 -641.3678983 145.93384019 -615.78529167 145.82562828 C-603.90695453 145.77404935 -592.02927941 145.70372244 -580.15136719 145.58935547 C-569.79933141 145.48972792 -559.447775 145.42517869 -549.09527314 145.40286505 C-543.6126542 145.38981971 -538.13140673 145.3591355 -532.64922714 145.28644943 C-527.48930068 145.21859 -522.33131074 145.19762907 -517.17098045 145.21267319 C-515.27702623 145.20992107 -513.38300757 145.19001313 -511.48943901 145.15169525 C-497.12763005 144.87531824 -497.12763005 144.87531824 -493.17615128 148.51008987 C-491.58889771 151.17251587 -491.58889771 151.17251587 -490.54414558 153.8177433 C-488.43585389 159.0755004 -483.84765019 162.17339488 -478.92578125 164.66015625 C-469.52885459 168.46398975 -461.52963817 168.48105138 -452.13671875 164.65234375 C-444.45587673 160.79464948 -440.56653494 155.41989837 -436.66015625 147.89453125 C-435.03585429 142.78556763 -434.81671875 137.67556948 -434.53125 132.34375 C-433.32742676 131.85720947 -432.12360352 131.37066895 -430.88330078 130.86938477 C-404.15282124 120.06568879 -377.42485663 109.25580948 -350.70068359 98.43652344 C-341.10063834 94.549996 -331.50020173 90.66443535 -321.89984131 86.77868652 C-319.27046477 85.71444266 -316.64109075 84.65019258 -314.01171875 83.5859375 C-313.14446167 83.23490967 -312.27720459 82.88388184 -311.38366699 82.5222168 C-306.1838888 80.41753891 -300.98419701 78.31264774 -295.78457642 76.20758057 C-277.52665286 68.81586797 -259.2674435 61.42735567 -241.00537109 54.04589844 C-234.13807782 51.27011843 -227.27094669 48.49393732 -220.40380859 45.71777344 C-216.45627957 44.12191658 -212.50867896 42.52623697 -208.56103516 40.93066406 C-203.73347662 38.97937108 -198.90619528 37.02739373 -194.07910156 35.07495117 C-192.28475908 34.34930267 -190.49032847 33.62387202 -188.69580078 32.89868164 C-187.01117666 32.21787815 -185.32671282 31.5366779 -183.64242554 30.8550415 C-182.0668888 30.217899 -180.49075734 29.58222472 -178.91397095 28.94818115 C-173.54562268 26.78257861 -168.24438731 24.48782051 -162.9831543 22.07177734 C-160.07210308 21.20741861 -158.40838102 21.44636349 -155.53125 22.34375 C-153.57421875 23.8671875 -153.57421875 23.8671875 -151.71875 25.71875 C-144.68171634 32.07688616 -138.43542751 32.91737624 -129.0078125 32.6953125 C-121.31697608 31.91758747 -114.89827764 28.95473344 -109.53125 23.34375 C-105.68706844 18.2150262 -103.31694277 13.25073768 -101.85546875 7.00390625 C-101.60240967 5.93922119 -101.34935059 4.87453613 -101.08862305 3.77758789 C-100.90468994 2.97442139 -100.72075684 2.17125488 -100.53125 1.34375 C-67.02649336 0.23266169 -33.52001409 0.09182878 0 0 Z " fill="#38AB44" transform="translate(909.53125,940.65625)"/>
<path d="M0 0 C3.54120058 1.50910012 5.81604365 3.57119314 8.51953125 6.2890625 C9.37740234 7.14886719 10.23527344 8.00867188 11.11914062 8.89453125 C12.00794922 9.79558594 12.89675781 10.69664062 13.8125 11.625 C14.68970703 12.50285156 15.56691406 13.38070312 16.47070312 14.28515625 C20.19368606 18.0332004 23.86929106 21.77971111 27.29296875 25.8046875 C32.65725717 32.04714088 38.65135633 37.71723003 44.5 43.5 C57.81604763 56.66606801 57.81604763 56.66606801 61.46875 60.96875 C66.89761801 67.35525683 73.04561369 73.11010163 79 79 C92.84734471 92.69737347 92.84734471 92.69737347 98.05859375 98.8359375 C103.10885617 104.46540506 108.62501559 109.68322842 114 115 C127.84734471 128.69737347 127.84734471 128.69737347 133.05859375 134.8359375 C138.10885617 140.46540506 143.62501559 145.68322842 149 151 C162.84734471 164.69737347 162.84734471 164.69737347 168.05859375 170.8359375 C173.10885617 176.46540506 178.62501559 181.68322842 184 187 C197.84734471 200.69737347 197.84734471 200.69737347 203.05859375 206.8359375 C208.10885617 212.46540506 213.62501559 217.68322842 219 223 C232.87680185 236.72651157 232.87680185 236.72651157 238.08984375 242.8671875 C242.96868107 248.31472364 248.30154442 253.36009501 253.5 258.5 C266.81604763 271.66606801 266.81604763 271.66606801 270.46875 275.96875 C275.89761801 282.35525683 282.04561369 288.11010163 288 294 C301.84734471 307.69737347 301.84734471 307.69737347 307.05859375 313.8359375 C312.10885617 319.46540506 317.62501559 324.68322842 323 330 C336.84734471 343.69737347 336.84734471 343.69737347 342.05859375 349.8359375 C347.10885617 355.46540506 352.62501559 360.68322842 358 366 C372.16810559 380.0146604 372.16810559 380.0146604 377.40283203 386.18457031 C381.23053913 390.53535447 385.49903319 394.4928939 389.65429688 398.52734375 C390.68973633 399.54634766 390.68973633 399.54634766 391.74609375 400.5859375 C392.37185303 401.1948584 392.9976123 401.8037793 393.64233398 402.43115234 C395 404 395 404 395 406 C356.75662912 406.20594105 318.51334168 406.3645568 280.26952862 406.45958797 C275.75585671 406.4708445 271.2421859 406.48249339 266.72851562 406.49438477 C265.82991444 406.49674556 264.93131326 406.49910635 264.00548173 406.50153869 C249.44998111 406.54071466 234.89479998 406.61168327 220.33948897 406.69437516 C205.40749607 406.77850038 190.47567064 406.82852075 175.54345047 406.84679645 C166.32716373 406.8591539 157.11177993 406.89819935 147.8957711 406.9712482 C141.5783805 407.01877495 135.26145756 407.03321196 128.94390111 407.0215124 C125.29705841 407.0157397 121.65179464 407.02466496 118.00523186 407.07284927 C114.05245171 407.12469876 110.10173457 407.10691927 106.14865112 407.08229065 C104.41810354 407.12161401 104.41810354 407.12161401 102.6525954 407.16173178 C95.02779499 407.03288805 95.02779499 407.03288805 92.0522902 404.04263866 C90.4750843 401.64329433 90.4750843 401.64329433 89.25160992 399.26029056 C86.22630157 393.79686637 80.74903066 391.02958685 75 389.125 C66.09261912 386.84384148 57.94110075 387.71343363 49.796875 392.21875 C42.74760213 397.06176189 37.17983662 404.7001177 35.5859375 413.2109375 C35.48152344 414.28214844 35.48152344 414.28214844 35.375 415.375 C35.30023437 416.08398438 35.22546875 416.79296875 35.1484375 417.5234375 C34.95896785 420.68458897 34.99121922 423.83383527 35 427 C3.05207078 440.07740156 -28.93823549 453.04676617 -60.95674133 465.95033264 C-71.51693378 470.20675934 -82.07197077 474.47584954 -92.625 478.75 C-95.98175543 480.10941304 -99.33852763 481.46878466 -102.6953125 482.828125 C-103.52577591 483.16443436 -104.35623932 483.50074371 -105.21186829 483.84724426 C-116.6322252 488.47153666 -128.05594264 493.08752143 -139.47943115 497.70407104 C-150.91646539 502.3261149 -162.35229987 506.95107445 -173.78439331 511.58532715 C-178.1594794 513.35864068 -182.53519323 515.13036532 -186.91259766 516.89794922 C-188.60579463 517.58170484 -190.29899125 518.26546134 -191.9921875 518.94921875 C-192.81921173 519.28312622 -193.64623596 519.61703369 -194.49832153 519.96105957 C-199.57861071 522.01441168 -204.65180542 524.08434266 -209.72045898 526.16624451 C-212.99503697 527.50943036 -216.27310431 528.84394777 -219.55187988 530.17684937 C-221.08535315 530.80271612 -222.61721702 531.4325426 -224.14733887 532.06655884 C-226.23744687 532.93220754 -228.33268684 533.78402652 -230.4296875 534.6328125 C-231.60772949 535.11637207 -232.78577148 535.59993164 -233.99951172 536.09814453 C-236.97929775 536.99377753 -238.19062627 537.20974329 -241 536 C-242.67578125 534.6953125 -242.67578125 534.6953125 -244.3125 533.125 C-249.84210168 528.18743276 -255.78088617 526.33752911 -263.125 525.75 C-272.62484576 526.36289327 -280.32270527 529.03690666 -287 536 C-290.7268455 541.05443424 -293.06192558 546.04876699 -295 552 C-322.20746716 552.32720744 -349.41463903 552.57400036 -376.62367821 552.72537041 C-389.25776356 552.79752659 -401.89062567 552.89587639 -414.52392578 553.05615234 C-425.53669036 553.19580218 -436.54856906 553.28603948 -447.56219447 553.31723893 C-453.39309728 553.33547485 -459.22146613 553.37824448 -465.05155563 553.48022079 C-470.5435171 553.57550139 -476.03191055 553.60451739 -481.52462006 553.58350754 C-483.53631389 553.58734857 -485.5481311 553.61506403 -487.55910873 553.66887665 C-502.37401244 554.04575521 -502.37401244 554.04575521 -506.79956484 550.59806299 C-510.33290055 546.82860272 -512.68463052 542.58795276 -515 538 C-515.99 536.515 -515.99 536.515 -517 535 C-516.84291504 530.80154756 -513.98205562 528.65503364 -511.1171875 525.859375 C-510.37844894 525.13056122 -510.37844894 525.13056122 -509.62478638 524.38702393 C-508.04847772 522.83407329 -506.46240674 521.29159761 -504.875 519.75 C-502.8060431 517.72786079 -500.74144826 515.70134979 -498.6796875 513.671875 C-498.17371033 513.17457886 -497.66773315 512.67728271 -497.14642334 512.16491699 C-494.52885779 509.57503174 -492.01449615 506.94841025 -489.6328125 504.140625 C-483.59183012 497.05054421 -476.72333427 490.67217903 -470.10644531 484.12695312 C-462.06795589 476.2854872 -462.06795589 476.2854872 -454.5 468 C-448.51510679 460.95012579 -441.67552848 454.62489099 -435.10644531 448.12695312 C-426.24598135 439.37622614 -426.24598135 439.37622614 -417.91015625 430.1328125 C-412.46414614 424.05199139 -406.48192061 418.43707194 -400.67919922 412.69970703 C-392.87616484 405.08162679 -392.87616484 405.08162679 -385.53125 397.03125 C-379.53186387 389.97358707 -372.68648983 383.63573362 -366.10644531 377.12695312 C-358.06795589 369.2854872 -358.06795589 369.2854872 -350.5 361 C-344.51510679 353.95012579 -337.67552848 347.62489099 -331.10644531 341.12695312 C-322.24598135 332.37622614 -322.24598135 332.37622614 -313.91015625 323.1328125 C-308.46414614 317.05199139 -302.48192061 311.43707194 -296.67919922 305.69970703 C-288.87616484 298.08162679 -288.87616484 298.08162679 -281.53125 290.03125 C-275.53186387 282.97358707 -268.68648983 276.63573362 -262.10644531 270.12695312 C-254.06795589 262.2854872 -254.06795589 262.2854872 -246.5 254 C-240.51510679 246.95012579 -233.67552848 240.62489099 -227.10644531 234.12695312 C-219.06795589 226.2854872 -219.06795589 226.2854872 -211.5 218 C-205.51510679 210.95012579 -198.67552848 204.62489099 -192.10644531 198.12695312 C-183.24598135 189.37622614 -183.24598135 189.37622614 -174.91015625 180.1328125 C-169.46414614 174.05199139 -163.48192061 168.43707194 -157.67919922 162.69970703 C-149.87616484 155.08162679 -149.87616484 155.08162679 -142.53125 147.03125 C-136.53186387 139.97358707 -129.68648983 133.63573362 -123.10644531 127.12695312 C-115.06795589 119.2854872 -115.06795589 119.2854872 -107.5 111 C-101.51510679 103.95012579 -94.67552848 97.62489099 -88.10644531 91.12695312 C-79.24598135 82.37622614 -79.24598135 82.37622614 -70.91015625 73.1328125 C-65.46414614 67.05199139 -59.48192061 61.43707194 -53.67919922 55.69970703 C-45.87616484 48.08162679 -45.87616484 48.08162679 -38.53125 40.03125 C-32.53186387 32.97358707 -25.68648983 26.63573362 -19.10644531 20.12695312 C-9.21529254 10.38029864 -9.21529254 10.38029864 0 0 Z " fill="#38AB44" transform="translate(709,518)"/>
</svg>
